<svg xmlns="http://www.w3.org/2000/svg" width="303.015" height="90.622" viewBox="0 0 303.015 90.622"><defs><style>.a{fill:#002b49;}.b{fill:#5d5d5d;}.c{fill:#33a098;}</style></defs><g transform="translate(-219.402 -396.257)"><path class="a" d="M273.522,427.95H231.3a11.938,11.938,0,0,0-11,7.385h7.009q11.949,0,17.046,4.032t5.1,12.977q0,12.317-9.751,15.91l4.161,5.877L238.6,486.583l-11.364-16.349H219.4v11.835a11.934,11.934,0,0,0,11.9,11.9h7.593l25.188-58.633h11.071L285.421,459.1V439.849A11.934,11.934,0,0,0,273.522,427.95Z" transform="translate(0 -18.788)"/><path class="b" d="M297.6,544.76l-7.9,18.456h.021l-5,11.7,16.306-11.7h11.216a11.938,11.938,0,0,0,11.277-8.14l-4.44-10.316Z" transform="translate(-38.725 -88.036)"/><path class="a" d="M235.668,483.486q2.125-1.906,2.127-6.049t-2.2-5.682q-2.2-1.54-7.7-1.54h-8.5v15.176h8.276Q233.542,485.392,235.668,483.486Z" transform="translate(0 -43.844)"/><path class="b" d="M326.972,498.424H339.8l-6.378-14.883Z" transform="translate(-63.77 -51.744)"/><path class="a" d="M477.916,479.1q0,8.581-6.793,11.083l9.039,12.768h-9.806l-7.916-11.389h-5.516v11.389h-7.967v-35.7h13.534q8.324,0,11.874,2.809T477.916,479.1Zm-9.6,4.24a5.4,5.4,0,0,0,1.481-4.214q0-2.885-1.532-3.958T462.9,474.1h-5.975V484.67h5.822Q466.833,484.67,468.315,483.343Z" transform="translate(-136.086 -42.089)"/><path class="a" d="M562.338,510.272a15.359,15.359,0,0,1-10.9,4.392,14.463,14.463,0,0,1-10.342-3.856q-4.087-3.855-4.086-10.342a13.335,13.335,0,0,1,4.163-10.316A14.038,14.038,0,0,1,551,486.32a14.217,14.217,0,0,1,9.627,3.422,11.772,11.772,0,0,1,3.958,9.4v4.086h-20.02a5.457,5.457,0,0,0,2.349,3.677,7.515,7.515,0,0,0,4.494,1.43,8.811,8.811,0,0,0,6.639-2.707Zm-7.354-16.292a5.8,5.8,0,0,0-3.856-1.328,6.9,6.9,0,0,0-4.163,1.379,5.273,5.273,0,0,0-2.2,3.728h12.053A5.442,5.442,0,0,0,554.984,493.981Z" transform="translate(-188.283 -53.391)"/><path class="a" d="M638.962,509.609a11.627,11.627,0,0,1-9.014,4.035,12.446,12.446,0,0,1-9.091-3.652,13.077,13.077,0,0,1-3.7-9.754,13.75,13.75,0,0,1,3.805-10.01,11.836,11.836,0,0,1,8.707-3.907,9.967,9.967,0,0,1,8.121,4.035v-3.626h7.661v23.952a15.892,15.892,0,0,1-1.277,6.538,11.3,11.3,0,0,1-3.422,4.494,15.6,15.6,0,0,1-10.01,3.371,20.93,20.93,0,0,1-6.256-1,17.829,17.829,0,0,1-5.592-2.834l2.962-5.771a13.035,13.035,0,0,0,7.993,2.86,9.926,9.926,0,0,0,6.665-2.094Q638.963,514.153,638.962,509.609Zm-1.073-9.678a7.119,7.119,0,0,0-1.838-5.184,6.091,6.091,0,0,0-4.545-1.89,6.514,6.514,0,0,0-4.673,1.89,6.819,6.819,0,0,0-1.966,5.159,7.361,7.361,0,0,0,1.915,5.286,6.2,6.2,0,0,0,4.673,2.017,6,6,0,0,0,4.6-1.992A7.485,7.485,0,0,0,637.89,499.93Z" transform="translate(-235.796 -53.391)"/><path class="b" d="M727.51,502.954l-3.32-7.712H709.225l-3.32,7.712h-8.477l15.424-35.7h7.712l15.424,35.7Zm-10.777-25.077-4.494,10.368h8.937Z" transform="translate(-283.384 -42.089)"/><path class="b" d="M808.8,473.19a3.081,3.081,0,0,0-1.149,2.5,2.828,2.828,0,0,0,1.405,2.477,25.639,25.639,0,0,0,6.486,2.171,18.279,18.279,0,0,1,7.891,3.754q2.807,2.5,2.808,7.3a9.638,9.638,0,0,1-3.6,7.788,14.352,14.352,0,0,1-9.474,2.988,21.923,21.923,0,0,1-15.27-6.282l4.75-5.822q5.771,5.056,10.673,5.056a5.6,5.6,0,0,0,3.448-.945,3.031,3.031,0,0,0,1.251-2.553,2.978,2.978,0,0,0-1.327-2.554,17.362,17.362,0,0,0-5.261-1.915q-6.232-1.48-9.116-3.856t-2.886-7.457a9.242,9.242,0,0,1,3.652-7.839,14.692,14.692,0,0,1,9.116-2.758,21.933,21.933,0,0,1,7.15,1.226,19.174,19.174,0,0,1,6.231,3.473l-4.036,5.822a15.722,15.722,0,0,0-9.6-3.524A4.8,4.8,0,0,0,808.8,473.19Z" transform="translate(-342.944 -40.899)"/><path class="b" d="M886.7,467.255h7.967v14.657l13.483-14.657H918l-14.2,15.781q1.838,2.554,6.793,9.525t7.4,10.393h-9.3l-10.469-14.1-3.575,3.983v10.112H886.7Z" transform="translate(-395.586 -42.089)"/><rect class="c" width="2.363" height="90.622" transform="translate(298.48 396.257)"/></g></svg>