<svg xmlns="http://www.w3.org/2000/svg" width="10.054" height="14.299" viewBox="0 0 10.054 14.299"><defs><style>.a{fill:#7c8091;}</style></defs><path class="a" d="M1708.239,1849.482v-2.094c0-1.746-1.747-3.167-3.889-3.167s-3.889,1.421-3.889,3.167v2.094a2.712,2.712,0,0,0-1.138,2.3v3.915a2.6,2.6,0,0,0,2.61,2.827h4.216a3.136,3.136,0,0,0,3.228-2.827v-3.915A3.307,3.307,0,0,0,1708.239,1849.482Zm-6.26-2.094c0-.9,1.084-1.659,2.371-1.659s2.371.76,2.371,1.659v1.5c-.19-.008-.482-.04-.572-.04h-4.216c-.09,0,.046.031.046.04Zm5.881,8.215a1.4,1.4,0,0,1-1.4,1.4h-4.221a1.4,1.4,0,0,1-1.4-1.4v-3.842a1.4,1.4,0,0,1,1.4-1.4h4.221a1.4,1.4,0,0,1,1.4,1.4Z" transform="translate(-1699.323 -1844.221)"/></svg>