<svg xmlns="http://www.w3.org/2000/svg" width="12.971" height="13.172" viewBox="0 0 12.971 13.172"><defs><style>.a{fill:#7c8091;}</style></defs><g transform="translate(0 7.441)"><path class="a" d="M1112.13,1715.69h-11.463a.754.754,0,0,1-.754-.754,4.983,4.983,0,0,1,4.977-4.977h3.017a4.983,4.983,0,0,1,4.977,4.977A.754.754,0,0,1,1112.13,1715.69Zm-10.626-1.508h9.79a3.476,3.476,0,0,0-3.386-2.715h-3.017A3.476,3.476,0,0,0,1101.5,1714.182Z" transform="translate(-1099.913 -1709.959)"/></g><g transform="translate(3.167)"><path class="a" d="M1119.928,1677.37a3.318,3.318,0,1,1,3.318-3.318A3.322,3.322,0,0,1,1119.928,1677.37Zm0-5.128a1.81,1.81,0,1,0,1.81,1.81A1.812,1.812,0,0,0,1119.928,1672.242Z" transform="translate(-1116.61 -1670.734)"/></g></svg>